<svg width="1250" height="852" viewBox="0 0 1250 852" fill="none" xmlns="http://www.w3.org/2000/svg">
<path fill-rule="evenodd" clip-rule="evenodd" d="M314.695 350.6H326.85V415.534L357.507 350.6H380.926L348.353 417.024L380.926 499.63H356.868L334.088 440.23L326.85 453.856V499.63H303.431V499.269H303.249V481.63H259.153V499.269H239.076V463.241H247.145C248.896 460.99 250.084 458.55 250.71 455.923C251.46 453.296 251.961 450.044 252.211 446.166L256.902 350.281H314.695V350.6ZM272.477 445.791C272.226 450.795 271.6 454.547 270.6 457.049C269.724 459.551 268.41 461.615 266.659 463.241H293.68V369.045H276.229L272.477 445.791Z" fill="url(#paint0_linear_4041_3)"/>
<path fill-rule="evenodd" clip-rule="evenodd" d="M314.695 351.297H326.653V500.369H303.264V499.269H303.249V481.63H259.153V499.269H239.076V463.241H247.145C248.896 460.99 250.084 458.55 250.71 455.923C251.46 453.296 251.961 450.044 252.211 446.166L256.902 350.281H314.695V351.297ZM272.477 445.791C272.226 450.795 271.6 454.547 270.6 457.049C269.724 459.551 268.41 461.615 266.659 463.241H293.68V369.045H276.229L272.477 445.791Z" fill="url(#paint1_linear_4041_3)"/>
<path d="M447.88 413.316V355.105H414.748L414.193 372.504C414.008 377.625 413.7 382.529 413.268 387.218C412.836 391.907 412.188 396.134 411.324 399.897C410.46 403.599 409.257 406.591 407.715 408.874C406.234 411.157 404.352 412.391 402.07 412.576L396.609 411.373C399.201 411.558 401.298 410.663 402.902 408.689C404.568 406.715 405.864 403.908 406.789 400.267C407.777 396.627 408.486 392.401 408.918 387.589C409.35 382.776 409.658 377.625 409.843 372.133L410.491 350.848H452.6V413.316H447.88ZM394.203 430.438L394.296 411.373H462.595V430.438H458.06V415.63H398.83L398.738 430.438H394.203Z" fill="white"/>
<path d="M476.026 415.63V367.321H480.654V408.504L515.081 367.321H519.153V415.63H514.525V374.447L480.098 415.63H476.026Z" fill="white"/>
<path d="M549.873 416.093C546.541 416.093 543.179 415.568 539.785 414.52C536.392 413.471 533.4 411.867 530.808 409.707L532.567 406.283C534.911 408.257 537.626 409.738 540.711 410.725C543.796 411.651 546.881 412.083 549.966 412.021C553.112 412.021 555.858 411.558 558.202 410.633C560.608 409.707 562.459 408.442 563.755 406.838C565.051 405.234 565.698 403.445 565.698 401.471C565.698 398.571 564.403 396.319 561.811 394.715C559.22 393.111 555.673 392.309 551.169 392.309H543.395V388.792H550.984C553.575 388.792 555.858 388.452 557.832 387.774C559.868 387.095 561.441 386.108 562.552 384.812C563.724 383.455 564.31 381.882 564.31 380.092C564.31 378.118 563.631 376.452 562.274 375.095C560.979 373.676 559.189 372.627 556.906 371.948C554.685 371.27 552.187 370.93 549.41 370.93C547.004 370.992 544.505 371.362 541.914 372.041C539.384 372.72 536.886 373.738 534.418 375.095L532.937 371.393C535.652 369.912 538.397 368.802 541.174 368.061C543.95 367.321 546.757 366.92 549.595 366.858C553.174 366.797 556.444 367.29 559.405 368.339C562.367 369.326 564.711 370.776 566.439 372.689C568.166 374.54 569.03 376.792 569.03 379.445C569.03 381.851 568.29 383.949 566.809 385.738C565.39 387.465 563.416 388.823 560.886 389.81C558.418 390.797 555.642 391.29 552.557 391.29L552.927 389.81C558.48 389.81 562.768 390.889 565.791 393.049C568.876 395.208 570.418 398.108 570.418 401.748C570.418 404.648 569.493 407.178 567.642 409.337C565.791 411.496 563.292 413.162 560.146 414.334C557.061 415.507 553.637 416.093 549.873 416.093Z" fill="white"/>
<path d="M616.818 415.63V404.617L616.633 402.951V384.812C616.633 380.308 615.399 376.884 612.931 374.54C610.525 372.195 606.977 371.023 602.288 371.023C598.956 371.023 595.841 371.609 592.941 372.781C590.103 373.892 587.666 375.342 585.63 377.131L583.316 373.799C585.722 371.64 588.622 369.974 592.015 368.802C595.409 367.568 598.956 366.951 602.658 366.951C608.643 366.951 613.239 368.462 616.448 371.486C619.656 374.509 621.26 379.013 621.26 384.997V415.63H616.818ZM599.419 416C595.841 416 592.725 415.445 590.072 414.334C587.481 413.162 585.476 411.527 584.056 409.43C582.699 407.332 582.02 404.926 582.02 402.211C582.02 399.743 582.576 397.522 583.686 395.548C584.859 393.512 586.771 391.877 589.424 390.643C592.077 389.347 595.625 388.699 600.067 388.699H617.836V392.309H600.16C595.162 392.309 591.645 393.234 589.609 395.085C587.635 396.936 586.648 399.249 586.648 402.026C586.648 405.111 587.82 407.579 590.165 409.43C592.509 411.28 595.81 412.206 600.067 412.206C604.139 412.206 607.563 411.28 610.34 409.43C613.178 407.579 615.275 404.895 616.633 401.378L617.928 404.525C616.633 408.041 614.412 410.849 611.265 412.946C608.18 414.982 604.232 416 599.419 416Z" fill="white"/>
<path d="M640.061 415.63V367.321H644.688V408.504L679.115 367.321H683.187V415.63H678.56V374.447L644.133 415.63H640.061ZM661.439 359.917C657.675 359.917 654.56 358.93 652.092 356.956C649.685 354.92 648.421 352.113 648.297 348.534H651.721C651.845 351.064 652.801 353.069 654.59 354.55C656.441 356.03 658.724 356.771 661.439 356.771C664.153 356.771 666.405 356.03 668.195 354.55C670.046 353.069 671.002 351.064 671.064 348.534H674.58C674.519 352.113 673.254 354.92 670.786 356.956C668.38 358.93 665.264 359.917 661.439 359.917Z" fill="white"/>
<path d="M703.144 415.63V367.321H707.771V389.347H740.532V367.321H745.16V415.63H740.532V393.419H707.771V415.63H703.144Z" fill="white"/>
<path d="M449.916 499.63L423.725 467.054L427.705 464.74L455.469 499.63H449.916ZM404.938 499.63V434.848H409.658V499.63H404.938ZM408.085 468.905V464.648H427.797V468.905H408.085ZM427.982 467.702L423.633 466.776L448.528 434.848H453.803L427.982 467.702Z" fill="white"/>
<path d="M484.069 500C479.442 500 475.308 498.951 471.668 496.854C468.089 494.756 465.22 491.856 463.061 488.154C460.963 484.453 459.914 480.226 459.914 475.476C459.914 470.663 460.963 466.437 463.061 462.797C465.22 459.095 468.089 456.195 471.668 454.097C475.308 452 479.442 450.951 484.069 450.951C488.696 450.951 492.83 452 496.47 454.097C500.11 456.195 502.979 459.095 505.077 462.797C507.175 466.437 508.224 470.663 508.224 475.476C508.224 480.226 507.175 484.453 505.077 488.154C502.979 491.856 500.11 494.756 496.47 496.854C492.83 498.951 488.696 500 484.069 500ZM484.069 495.836C487.771 495.836 491.103 495.003 494.064 493.337C497.026 491.609 499.339 489.203 501.005 486.118C502.671 483.034 503.504 479.486 503.504 475.476C503.504 471.404 502.671 467.856 501.005 464.833C499.339 461.748 497.026 459.373 494.064 457.707C491.103 455.979 487.771 455.115 484.069 455.115C480.367 455.115 477.036 455.979 474.074 457.707C471.174 459.373 468.861 461.748 467.133 464.833C465.467 467.856 464.634 471.404 464.634 475.476C464.634 479.486 465.467 483.034 467.133 486.118C468.861 489.203 471.174 491.609 474.074 493.337C477.036 495.003 480.367 495.836 484.069 495.836Z" fill="white"/>
<path d="M523.293 499.63V451.321H527.921V473.347H560.682V451.321H565.309V499.63H560.682V477.419H527.921V499.63H523.293Z" fill="white"/>
<path d="M618.331 497.409V455.486H593.159L592.603 467.517C592.48 470.91 592.264 474.303 591.955 477.697C591.647 481.028 591.153 484.113 590.475 486.951C589.796 489.728 588.84 491.98 587.606 493.707C586.434 495.435 584.891 496.391 582.978 496.576L578.351 495.558C580.325 495.682 581.93 494.972 583.164 493.43C584.398 491.825 585.354 489.666 586.032 486.951C586.711 484.237 587.205 481.183 587.513 477.789C587.883 474.334 588.161 470.817 588.346 467.239L588.994 451.321H622.958V497.409H618.331ZM576.223 511.661V495.558H630.732V511.661H626.383V499.63H580.665V511.661H576.223Z" fill="white"/>
<path d="M668.738 500C664.481 500 660.625 499.013 657.17 497.039C653.777 495.065 651.062 492.257 649.026 488.617C647.052 484.915 646.065 480.535 646.065 475.476C646.065 470.416 647.052 466.067 649.026 462.427C651.062 458.725 653.777 455.887 657.17 453.912C660.625 451.938 664.481 450.951 668.738 450.951C673.304 450.951 677.376 452 680.954 454.097C684.595 456.133 687.433 459.002 689.469 462.704C691.566 466.406 692.615 470.663 692.615 475.476C692.615 480.288 691.566 484.545 689.469 488.247C687.433 491.949 684.595 494.849 680.954 496.946C677.376 498.982 673.304 500 668.738 500ZM644.491 517.584V451.321H648.933V467.146L648.193 475.568L649.119 483.99V517.584H644.491ZM668.461 495.836C672.163 495.836 675.494 495.003 678.456 493.337C681.417 491.609 683.731 489.203 685.397 486.118C687.124 483.034 687.988 479.486 687.988 475.476C687.988 471.404 687.124 467.856 685.397 464.833C683.731 461.748 681.417 459.373 678.456 457.707C675.494 455.979 672.163 455.115 668.461 455.115C664.759 455.115 661.427 455.979 658.466 457.707C655.566 459.373 653.252 461.748 651.525 464.833C649.859 467.856 649.026 471.404 649.026 475.476C649.026 479.486 649.859 483.034 651.525 486.118C653.252 489.203 655.566 491.609 658.466 493.337C661.427 495.003 664.759 495.836 668.461 495.836Z" fill="white"/>
<path d="M737.652 499.63V488.617L737.467 486.951V468.812C737.467 464.308 736.233 460.884 733.765 458.54C731.359 456.195 727.811 455.023 723.122 455.023C719.791 455.023 716.675 455.609 713.775 456.781C710.937 457.892 708.5 459.342 706.464 461.131L704.15 457.799C706.556 455.64 709.456 453.974 712.85 452.802C716.243 451.568 719.791 450.951 723.492 450.951C729.477 450.951 734.074 452.462 737.282 455.486C740.49 458.509 742.094 463.013 742.094 468.997V499.63H737.652ZM720.253 500C716.675 500 713.559 499.445 710.906 498.334C708.315 497.162 706.31 495.527 704.891 493.43C703.533 491.332 702.855 488.926 702.855 486.211C702.855 483.743 703.41 481.522 704.52 479.548C705.693 477.512 707.605 475.877 710.258 474.643C712.911 473.347 716.459 472.699 720.901 472.699H738.67V476.309H720.994C715.996 476.309 712.479 477.234 710.443 479.085C708.469 480.936 707.482 483.249 707.482 486.026C707.482 489.111 708.654 491.579 710.999 493.43C713.343 495.28 716.644 496.206 720.901 496.206C724.973 496.206 728.397 495.28 731.174 493.43C734.012 491.579 736.11 488.895 737.467 485.378L738.763 488.525C737.467 492.041 735.246 494.849 732.099 496.946C729.014 498.982 725.066 500 720.253 500Z" fill="white"/>
<path d="M769.687 499.63V454.097L770.982 455.486H750.807V451.321H793.193V455.486H773.018L774.314 454.097V499.63H769.687Z" fill="white"/>
<path d="M822.443 468.905C828.428 468.967 832.993 470.293 836.14 472.884C839.286 475.414 840.86 479.147 840.86 484.082C840.86 489.203 839.194 493.121 835.862 495.836C832.531 498.55 827.687 499.877 821.332 499.815L803.101 499.63V451.321H807.728V468.72L822.443 468.905ZM821.24 496.113C826.176 496.175 829.878 495.188 832.345 493.152C834.875 491.116 836.14 488.093 836.14 484.082C836.14 480.195 834.906 477.296 832.438 475.383C829.97 473.47 826.237 472.483 821.24 472.422L807.728 472.329V495.928L821.24 496.113Z" fill="white"/>
<path d="M874.244 500C869.37 500 865.051 498.951 861.288 496.854C857.586 494.756 854.655 491.856 852.496 488.154C850.398 484.453 849.349 480.226 849.349 475.476C849.349 470.663 850.337 466.437 852.311 462.797C854.347 459.095 857.123 456.195 860.64 454.097C864.157 452 868.105 450.951 872.486 450.951C876.866 450.951 880.784 451.969 884.239 454.005C887.756 456.041 890.502 458.91 892.476 462.612C894.512 466.252 895.53 470.478 895.53 475.29C895.53 475.476 895.499 475.692 895.437 475.938C895.437 476.123 895.437 476.339 895.437 476.586H852.774V472.977H892.939L891.088 474.735C891.149 470.972 890.347 467.609 888.681 464.648C887.077 461.625 884.887 459.28 882.111 457.614C879.334 455.887 876.126 455.023 872.486 455.023C868.907 455.023 865.699 455.887 862.861 457.614C860.085 459.28 857.894 461.625 856.29 464.648C854.686 467.609 853.884 471.003 853.884 474.828V475.661C853.884 479.609 854.748 483.126 856.475 486.211C858.265 489.234 860.702 491.609 863.787 493.337C866.871 495.003 870.388 495.836 874.337 495.836C877.422 495.836 880.291 495.28 882.944 494.17C885.658 493.059 887.941 491.363 889.792 489.08L892.476 492.134C890.378 494.725 887.725 496.7 884.517 498.057C881.37 499.353 877.946 500 874.244 500Z" fill="white"/>
<path d="M910.65 499.63V451.321H931.01C936.316 451.321 940.511 452.37 943.596 454.468C946.681 456.565 948.223 459.619 948.223 463.63C948.223 467.578 946.712 470.571 943.689 472.607C940.727 474.643 936.871 475.661 932.12 475.661L933.416 474.272C939.092 474.272 943.257 475.321 945.91 477.419C948.563 479.517 949.889 482.602 949.889 486.674C949.889 490.807 948.378 494.016 945.354 496.298C942.393 498.52 937.797 499.63 931.565 499.63H910.65ZM915.184 495.836H931.473C935.976 495.836 939.401 495.095 941.745 493.615C944.09 492.134 945.262 489.759 945.262 486.489C945.262 483.157 944.213 480.751 942.115 479.27C940.079 477.728 936.779 476.956 932.213 476.956H915.184V495.836ZM915.184 473.347H930.732C934.804 473.347 937.951 472.576 940.172 471.033C942.455 469.491 943.596 467.208 943.596 464.185C943.596 461.162 942.455 458.91 940.172 457.429C937.951 455.887 934.804 455.115 930.732 455.115H915.184V473.347Z" fill="white"/>
<path d="M996.492 499.63V488.617L996.307 486.951V468.812C996.307 464.308 995.073 460.884 992.605 458.54C990.199 456.195 986.651 455.023 981.962 455.023C978.631 455.023 975.515 455.609 972.615 456.781C969.777 457.892 967.34 459.342 965.304 461.131L962.99 457.799C965.396 455.64 968.296 453.974 971.69 452.802C975.083 451.568 978.631 450.951 982.332 450.951C988.317 450.951 992.913 452.462 996.122 455.486C999.33 458.509 1000.93 463.013 1000.93 468.997V499.63H996.492ZM979.093 500C975.515 500 972.399 499.445 969.746 498.334C967.155 497.162 965.15 495.527 963.731 493.43C962.373 491.332 961.695 488.926 961.695 486.211C961.695 483.743 962.25 481.522 963.36 479.548C964.533 477.512 966.445 475.877 969.098 474.643C971.751 473.347 975.299 472.699 979.741 472.699H997.51V476.309H979.834C974.836 476.309 971.319 477.234 969.283 479.085C967.309 480.936 966.322 483.249 966.322 486.026C966.322 489.111 967.494 491.579 969.839 493.43C972.183 495.28 975.484 496.206 979.741 496.206C983.813 496.206 987.237 495.28 990.014 493.43C992.852 491.579 994.949 488.895 996.307 485.378L997.602 488.525C996.307 492.041 994.086 494.849 990.939 496.946C987.854 498.982 983.906 500 979.093 500Z" fill="white"/>
<mask id="mask0_4041_3" style="mask-type:alpha" maskUnits="userSpaceOnUse" x="770" y="365" width="232" height="52">
<path d="M770.02 368.395C770.02 366.994 771.156 365.857 772.557 365.857H954.634C955.035 365.857 955.431 365.953 955.788 366.135L1000.5 388.977C1002.34 389.919 1002.34 392.555 1000.5 393.497L955.788 416.339C955.431 416.521 955.035 416.616 954.634 416.616H772.557C771.156 416.616 770.02 415.48 770.02 414.079V368.395Z" fill="#E1F8FF"/>
</mask>
<g mask="url(#mask0_4041_3)">
<path d="M770.02 368.395C770.02 366.994 771.156 365.857 772.557 365.857H954.634C955.035 365.857 955.431 365.953 955.788 366.135L1000.5 388.977C1002.34 389.919 1002.34 392.555 1000.5 393.497L955.788 416.339C955.431 416.521 955.035 416.616 954.634 416.616H772.557C771.156 416.616 770.02 415.48 770.02 414.079V368.395Z" fill="#CBDDE3"/>
<rect x="991.992" y="378.547" width="10.7754" height="25.3795" fill="url(#paint2_linear_4041_3)"/>
</g>
<path d="M767.865 370.933C767.865 368.13 770.138 365.857 772.941 365.857H798.036V416.616H772.941C770.138 416.616 767.865 414.344 767.865 411.541V370.933Z" fill="#EE800C"/>
<rect x="798.037" y="365.857" width="157.32" height="50.7591" fill="#0D7799"/>
<rect x="798.037" y="378.547" width="157.32" height="25.3795" fill="#16C7FF"/>
<line x1="797.152" y1="364.588" x2="797.152" y2="417.885" stroke="#CBDDE3" stroke-width="2.53795" stroke-linecap="round"/>
<line x1="792.841" y1="364.588" x2="792.841" y2="417.885" stroke="#CBDDE3" stroke-width="2.53795" stroke-linecap="round"/>
<line x1="794.996" y1="364.588" x2="794.996" y2="417.885" stroke="#849196" stroke-width="2.53795" stroke-linecap="round"/>
<line x1="790.685" y1="364.588" x2="790.685" y2="417.885" stroke="#849196" stroke-width="2.53795" stroke-linecap="round"/>
<defs>
<linearGradient id="paint0_linear_4041_3" x1="332.897" y1="425.932" x2="323.878" y2="425.932" gradientUnits="userSpaceOnUse">
<stop stop-color="#EBEBEB"/>
<stop offset="1" stop-color="#808080"/>
</linearGradient>
<linearGradient id="paint1_linear_4041_3" x1="214.425" y1="513.139" x2="354.257" y2="324.564" gradientUnits="userSpaceOnUse">
<stop stop-color="#0D7799"/>
<stop offset="0.5" stop-color="#16C7FF"/>
<stop offset="1" stop-color="#0D7799"/>
</linearGradient>
<linearGradient id="paint2_linear_4041_3" x1="1001.69" y1="391.237" x2="991.992" y2="391.237" gradientUnits="userSpaceOnUse">
<stop stop-color="#16C7FF"/>
<stop offset="1" stop-color="#0D7799"/>
</linearGradient>
</defs>
</svg>
